<svg width="934" height="934" viewBox="0 0 934 934" fill="none" xmlns="http://www.w3.org/2000/svg">
<rect width="934" height="934" rx="467" fill="white"/>
<path d="M554.106 348.208L545.173 351.542L550.373 359.142C553.173 363.275 557.973 371.275 561.04 377.008C564.106 382.742 567.306 387.142 568.24 386.875C578.24 382.742 586.373 378.742 586.373 377.675C586.373 373.142 568.24 345.408 565.04 345.008C563.973 344.875 559.04 346.342 554.106 348.208Z" fill="#F75B20"/>
<path d="M523.707 357.542C518.907 359.408 514.773 361.142 514.507 361.408C514.24 361.675 516.773 365.942 520.107 370.875C523.307 375.808 527.973 383.808 530.373 388.608C532.773 393.408 534.907 397.542 535.173 397.808C535.973 398.608 555.707 390.742 555.707 389.542C555.707 384.875 536.773 353.808 533.973 354.075C533.04 354.075 528.507 355.675 523.707 357.542Z" fill="#F75B20"/>
<path d="M407.173 358.075C406.906 359.142 405.306 364.475 403.706 369.942C399.84 383.542 387.173 409.275 376.906 424.608C372.106 431.675 361.84 444.075 353.306 452.742L338.24 468.342L345.173 472.475C348.906 474.875 354.906 479.408 358.506 482.875L364.906 488.875L368.64 486.075C375.306 481.008 392.906 460.208 401.44 447.675L409.706 435.275H441.573H473.306L472.373 444.875C467.573 496.608 446.773 528.342 403.706 549.942C396.773 553.408 388.773 557.008 385.973 557.808L381.04 559.542L387.84 567.008C391.573 571.142 396.373 577.675 398.64 581.542C400.773 585.408 403.44 588.608 404.506 588.608C407.306 588.608 428.506 577.275 441.04 568.875C455.173 559.542 473.44 541.408 481.706 528.742C496.373 506.075 502.373 485.675 507.04 442.875L507.84 435.275H541.173H574.373V419.542V403.942L499.706 404.342C458.64 404.608 425.04 404.608 425.04 404.342C425.04 404.075 428.906 395.275 433.706 384.608C439.706 371.008 441.84 365.008 440.64 364.475C439.706 363.942 433.44 362.342 426.64 360.742C419.706 359.275 412.773 357.542 410.906 357.142C408.773 356.608 407.573 357.008 407.173 358.075Z" fill="#F75B20"/>
<path d="M125.973 375.542C122.773 383.808 120.24 390.742 120.24 390.875C120.373 391.008 128.24 392.075 137.706 393.275C157.973 395.808 190.506 401.808 211.173 406.608C224.24 409.808 259.04 419.408 264.106 421.408C265.84 421.942 267.306 418.742 271.44 405.675C276.506 390.208 276.64 389.275 274.24 388.342C266.773 385.542 214.906 373.408 193.306 369.408C167.84 364.742 140.773 360.608 135.04 360.608C132.24 360.608 131.306 362.342 125.973 375.542Z" fill="#F75B20"/>
<path d="M713.84 460.875C713.44 514.608 712.64 560.742 712.24 563.408C711.44 567.942 711.973 568.875 719.973 577.142L728.373 585.942L743.84 579.408C752.506 575.808 764.373 570.342 770.373 567.142C797.973 552.475 820.773 527.542 834.773 496.475L839.44 486.342L832.373 480.742C828.506 477.675 823.04 472.208 820.24 468.608C817.306 465.008 814.773 462.075 814.24 461.942C813.84 461.942 812.506 465.142 811.04 468.875C802.906 492.342 786.24 515.275 768.506 527.942C760.373 533.675 748.106 540.342 747.44 539.142C746.506 537.808 748.773 369.008 749.706 366.208L750.64 363.275H732.773H714.773L713.84 460.875Z" fill="#F75B20"/>
<path d="M643.307 407.142C642.507 452.209 640.907 468.742 635.173 490.342C628.773 514.342 616.64 535.675 600.373 551.142L591.44 559.809L595.173 562.342C597.307 563.809 603.573 569.809 609.307 575.542L619.44 586.075L629.04 575.009C641.307 561.009 647.573 551.675 655.04 537.009C669.973 507.009 674.773 481.142 677.04 415.809C677.84 393.942 678.773 374.075 679.173 371.675C679.973 366.475 679.707 366.342 658.907 365.542L643.973 365.009L643.307 407.142Z" fill="#F75B20"/>
<path d="M121.973 448.875L115.973 463.942L120.773 464.875C123.573 465.408 135.573 467.408 147.706 469.408C174.373 473.675 222.24 485.408 242.373 492.608L257.04 497.808L262.24 481.542C265.973 469.808 266.906 465.008 265.84 464.342C263.04 462.742 211.306 449.008 192.373 444.742C174.24 440.875 134.773 433.942 130.24 433.942C128.64 433.942 126.24 438.208 121.973 448.875Z" fill="#F75B20"/>
<path d="M100.64 523.542C97.3065 531.675 94.6398 538.742 95.0398 539.008C95.3065 539.275 104.506 541.008 115.306 542.742C166.906 550.742 227.307 566.208 260.907 580.075C267.04 582.608 272.24 584.608 272.507 584.342C273.307 583.542 283.707 553.408 283.707 551.942C283.707 550.342 253.706 540.342 223.04 531.808C191.573 523.142 168.106 518.342 111.04 509.275C106.906 508.608 106.906 508.608 100.64 523.542Z" fill="#F75B20"/>
</svg>
