<svg width="745" height="244" viewBox="0 0 745 244" fill="none" xmlns="http://www.w3.org/2000/svg">
<path d="M459.106 3.20842L450.173 6.54175L455.373 14.1418C458.173 18.2751 462.973 26.2751 466.04 32.0084C469.106 37.7418 472.306 42.1418 473.24 41.8751C483.24 37.7418 491.373 33.7418 491.373 32.6751C491.373 28.1418 473.24 0.408421 470.04 0.00842067C468.973 -0.124913 464.04 1.34175 459.106 3.20842Z" fill="#F75B20"/>
<path d="M428.707 12.5417C423.907 14.4084 419.773 16.1417 419.507 16.4084C419.24 16.675 421.773 20.9417 425.107 25.875C428.307 30.8084 432.973 38.8084 435.373 43.6084C437.773 48.4084 439.907 52.5417 440.173 52.8084C440.973 53.6084 460.707 45.7417 460.707 44.5417C460.707 39.875 441.773 8.80836 438.973 9.07503C438.04 9.07503 433.507 10.675 428.707 12.5417Z" fill="#F75B20"/>
<path d="M312.173 13.0751C311.906 14.1417 310.306 19.4751 308.706 24.9417C304.84 38.5417 292.173 64.2751 281.906 79.6084C277.106 86.6751 266.84 99.0751 258.306 107.742L243.24 123.342L250.173 127.475C253.906 129.875 259.906 134.408 263.506 137.875L269.906 143.875L273.64 141.075C280.306 136.008 297.906 115.208 306.44 102.675L314.706 90.2751H346.573H378.306L377.373 99.8751C372.573 151.608 351.773 183.342 308.706 204.942C301.773 208.408 293.773 212.008 290.973 212.808L286.04 214.542L292.84 222.008C296.573 226.142 301.373 232.675 303.64 236.542C305.773 240.408 308.44 243.608 309.506 243.608C312.306 243.608 333.506 232.275 346.04 223.875C360.173 214.542 378.44 196.408 386.706 183.742C401.373 161.075 407.373 140.675 412.04 97.8751L412.84 90.2751H446.173H479.373V74.5417V58.9417L404.706 59.3417C363.64 59.6084 330.04 59.6084 330.04 59.3417C330.04 59.0751 333.906 50.2751 338.706 39.6084C344.706 26.0084 346.84 20.0084 345.64 19.4751C344.706 18.9417 338.44 17.3417 331.64 15.7417C324.706 14.2751 317.773 12.5417 315.906 12.1417C313.773 11.6084 312.573 12.0084 312.173 13.0751Z" fill="#F75B20"/>
<path d="M30.9731 30.5416C27.7731 38.8083 25.2397 45.7416 25.2397 45.875C25.3731 46.0083 33.2397 47.075 42.7064 48.275C62.9731 50.8083 95.5064 56.8083 116.173 61.6083C129.24 64.8083 164.04 74.4083 169.106 76.4083C170.84 76.9416 172.306 73.7416 176.44 60.675C181.506 45.2083 181.64 44.275 179.24 43.3416C171.773 40.5416 119.906 28.4083 98.3064 24.4083C72.8397 19.7416 45.7731 15.6083 40.0397 15.6083C37.2397 15.6083 36.3064 17.3416 30.9731 30.5416Z" fill="#F75B20"/>
<path d="M618.84 115.875C618.44 169.608 617.64 215.742 617.24 218.408C616.44 222.942 616.973 223.875 624.973 232.142L633.373 240.942L648.84 234.408C657.506 230.808 669.373 225.342 675.373 222.142C702.973 207.475 725.773 182.542 739.773 151.475L744.44 141.342L737.373 135.742C733.506 132.675 728.04 127.208 725.24 123.608C722.306 120.008 719.773 117.075 719.24 116.942C718.84 116.942 717.506 120.142 716.04 123.875C707.906 147.342 691.24 170.275 673.506 182.942C665.373 188.675 653.106 195.342 652.44 194.142C651.506 192.808 653.773 24.0083 654.706 21.2083L655.64 18.275H637.773H619.773L618.84 115.875Z" fill="#F75B20"/>
<path d="M548.307 62.1419C547.507 107.209 545.907 123.742 540.173 145.342C533.773 169.342 521.64 190.675 505.373 206.142L496.44 214.809L500.173 217.342C502.307 218.809 508.573 224.809 514.307 230.542L524.44 241.075L534.04 230.009C546.307 216.009 552.573 206.675 560.04 192.009C574.973 162.009 579.773 136.142 582.04 70.8085C582.84 48.9419 583.773 29.0752 584.173 26.6752C584.973 21.4752 584.707 21.3419 563.907 20.5419L548.973 20.0085L548.307 62.1419Z" fill="#F75B20"/>
<path d="M26.9731 103.875L20.9731 118.942L25.7731 119.875C28.5731 120.408 40.5731 122.408 52.7065 124.408C79.3731 128.675 127.24 140.408 147.373 147.608L162.04 152.808L167.24 136.542C170.973 124.808 171.906 120.008 170.84 119.342C168.04 117.742 116.306 104.008 97.3731 99.7417C79.2398 95.875 39.7731 88.9417 35.2398 88.9417C33.6398 88.9417 31.2398 93.2083 26.9731 103.875Z" fill="#F75B20"/>
<path d="M5.63982 178.542C2.30649 186.675 -0.360177 193.742 0.039823 194.008C0.30649 194.275 9.50649 196.008 20.3065 197.742C71.9065 205.742 132.307 221.208 165.907 235.075C172.04 237.608 177.24 239.608 177.507 239.342C178.307 238.542 188.707 208.408 188.707 206.942C188.707 205.342 158.706 195.342 128.04 186.808C96.5732 178.142 73.1065 173.342 16.0398 164.275C11.9065 163.608 11.9065 163.608 5.63982 178.542Z" fill="#F75B20"/>
</svg>
