<svg width="57" height="28" viewBox="0 0 57 28" fill="none" xmlns="http://www.w3.org/2000/svg">
<path d="M12.5679 0.0747566C7.06087 0.767962 2.47165 4.45825 0.740258 9.58253C-0.0663334 11.9748 -0.212354 14.333 0.295242 16.7796C1.09488 20.6194 3.54247 23.9835 7.0122 26.0155C8.51413 26.899 10.0508 27.4495 12.0464 27.8165C12.8113 27.9592 12.853 27.9592 34.9091 27.9796L57 28V14V0L35.0134 0.00679588C22.9146 0.0135918 12.8183 0.0407772 12.5679 0.0747566ZM21.6977 6.70777C21.7673 6.8233 21.6004 7.5165 21.4057 7.92427C21.1415 8.48155 20.6547 8.95728 20.0428 9.24952L19.563 9.48058L16.7747 9.52136C13.7292 9.56214 13.6596 9.57573 12.8461 9.99709C11.7335 10.5748 11.0243 11.5874 10.8157 12.8854L10.7323 13.3883H9.32072C8.10388 13.3883 7.90223 13.3748 7.86051 13.2864C7.79098 13.1097 7.97177 11.9883 8.15951 11.3971C8.38202 10.7175 8.72968 10.0243 9.12603 9.48058C9.46674 9.01165 10.3707 8.14175 10.8296 7.83592C11.6014 7.32621 12.8183 6.85728 13.7153 6.73495C14.2298 6.66019 21.656 6.63981 21.6977 6.70777ZM36.3902 7.04757C36.2998 7.80194 35.7992 8.59029 35.1177 9.04563C34.4919 9.46699 34.485 9.47379 31.4464 9.51456C28.8458 9.55534 28.6372 9.56893 28.2061 9.70485C27.2813 10.0039 26.3982 10.7243 25.9601 11.5466C25.6681 12.1107 25.5777 12.3825 25.5151 12.9262L25.4665 13.3544L24.0132 13.3748L22.5599 13.3883L22.6017 12.7971C22.7825 10.2146 24.6807 7.83592 27.1909 7.03398C28.2895 6.68738 28.519 6.67379 32.6215 6.66699L36.4389 6.66019L36.3902 7.04757ZM50.7489 7C50.6655 8.0466 49.8172 9.05243 48.7463 9.37864C48.3291 9.50097 48.0997 9.51456 45.9163 9.51456C44.616 9.51456 43.3436 9.54854 43.0933 9.58253C42.8221 9.6233 42.4049 9.76602 42.0503 9.93592C40.8821 10.4932 40.0616 11.5874 39.8808 12.8311L39.8043 13.3883L38.3719 13.3748L36.9395 13.3544L36.9534 12.8786C37.0299 10.6563 38.5457 8.43398 40.6943 7.38738C41.2715 7.10874 42.1963 6.81651 42.7804 6.73495C43.0098 6.70097 44.9011 6.68058 46.9871 6.68738L50.7767 6.69418L50.7489 7ZM10.8226 15.1214C11.0173 16.399 11.8031 17.466 12.9643 18.0369C13.6735 18.3835 13.9934 18.4175 16.6357 18.4175C19.2293 18.4175 19.5213 18.4447 20.161 18.7641C20.5643 18.968 21.1345 19.5117 21.357 19.9126C21.51 20.1845 21.7394 20.966 21.7464 21.2243C21.7464 21.2515 19.8898 21.265 17.63 21.2583C13.5762 21.2311 13.4997 21.2311 12.9504 21.0748C10.1065 20.2796 8.1456 17.9893 7.87442 15.135L7.82575 14.6117H9.28595H10.7462L10.8226 15.1214ZM36.418 14.9854C36.418 15.8621 36.0008 17.167 35.4306 18.0845C34.9578 18.8524 33.8731 19.899 33.1013 20.3476C32.4615 20.7146 31.4116 21.0951 30.7163 21.1971C30.4451 21.2447 28.7345 21.2718 26.4121 21.2718H22.5599L22.6017 20.9456C22.7268 19.899 23.443 19.0087 24.486 18.5942C24.8198 18.465 25.0284 18.4515 27.6568 18.4175L30.4729 18.3767L30.9457 18.2C31.8983 17.8262 32.6493 17.1738 33.0734 16.3583C33.3168 15.8757 33.4976 15.2437 33.4976 14.8699V14.6117H34.9578H36.418V14.9854ZM50.7767 15.101C50.5125 17.9825 48.5586 20.2796 45.7008 21.0748C45.1515 21.2311 45.075 21.2311 41.0212 21.2583L36.8978 21.2786L36.9465 20.9524C37.0855 20.0146 37.6905 19.165 38.4901 18.7641C39.1229 18.4447 39.4288 18.4175 42.0155 18.4175C43.9416 18.4175 44.5396 18.3971 44.8942 18.3155C46.3196 17.9825 47.5295 16.7184 47.7937 15.3049C47.8424 15.0126 47.8841 14.7408 47.8911 14.6932C47.8911 14.632 48.2318 14.6117 49.3582 14.6117H50.8254L50.7767 15.101Z" fill="white"/>
</svg>
